<svg width="35" height="35" viewBox="0 0 79 62" fill="transparent" xmlns="http://www.w3.org/2000/svg">
  <g clip-path="url(#clip0)">
    <rect width="79" height="62" fill="transparent"/>
    <path d="M39.9579 61.9237C39.6544 61.9743 39.345 61.9779 39.0404 61.9343L36.2875 61.5411C36.0963 61.5138 35.9081 61.468 35.7257 61.4045L33.5747 60.6559C33.1954 60.5239 32.8465 60.3171 32.5487 60.0478L1.15807 31.664C-0.0943894 30.5315 1.05152 28.4857 2.67146 28.9622V28.9622C2.888 29.0259 3.11563 29.0427 3.33917 29.0115L17.75 27H28.625H39.5H50.375L60.9376 27C61.1453 27 61.3524 27.0216 61.5557 27.0644L75.0761 29.9108C75.3529 29.969 75.6407 29.9472 75.9056 29.8479V29.8479C77.4544 29.2671 78.6538 31.2667 77.4124 32.3596L45.9412 60.0675C45.6498 60.324 45.3115 60.5215 44.9449 60.6491L42.7411 61.4161C42.5807 61.4719 42.4158 61.514 42.2482 61.542L39.9579 61.9237Z" fill="#603813"/>
    <path d="M39.0068 0.0821997C39.3333 0.0277753 39.6666 0.0277752 39.9932 0.0821994L42.1801 0.446687C42.3928 0.482126 42.6009 0.540379 42.8011 0.620439L44.5243 1.30971C44.8391 1.43566 45.1304 1.61409 45.3856 1.83741L77.3269 29.786C78.3306 30.6643 77.5218 32.3044 76.214 32.0428V32.0428C76.0723 32.0145 75.9269 32.0099 75.7837 32.0293L61.25 34H50.375H39.5H28.625H18.0423C17.8479 34 17.654 33.9811 17.4632 33.9436L2.86917 31.0726C2.63024 31.0256 2.38242 31.0616 2.16671 31.1746V31.1746C1.01609 31.7773 -0.0113804 30.1932 1.00812 29.3883L1.5 29L33.0528 1.88432C33.3481 1.63054 33.69 1.43667 34.0594 1.31353L36.2767 0.574435C36.4253 0.524888 36.5776 0.487061 36.7322 0.461303L39.0068 0.0821997Z" fill="#915F2D"/>
    <path d="M78 31C78 33.2091 60.5391 35 39 35C17.4609 35 0.5 32.7091 0.5 30.5C0.5 28.2909 0.5 33.5 39 32.5C76 34 78 28.7909 78 31Z" fill="#B57839"/>
  </g>
  <defs>
    <clipPath id="clip0">
      <rect width="79" height="62" fill="white"/>
    </clipPath>
  </defs>
</svg>